<mxfile host="65bd71144e">
    <diagram id="qhhgVpQUWNCosZ2mL5r4" name="페이지-1">
        <mxGraphModel dx="415" dy="1328" grid="1" gridSize="10" guides="1" tooltips="1" connect="1" arrows="1" fold="1" page="1" pageScale="1" pageWidth="827" pageHeight="1169" math="0" shadow="0">
            <root>
                <mxCell id="0"/>
                <mxCell id="1" parent="0"/>
                <mxCell id="125" value="User" style="shape=table;startSize=30;container=1;collapsible=0;childLayout=tableLayout;fixedRows=1;rowLines=0;fontStyle=1;align=center;fontFamily=Helvetica;fontSize=13;labelBackgroundColor=none;labelBorderColor=none;resizeHeight=0;movable=1;resizable=1;" parent="1" vertex="1">
                    <mxGeometry x="1241" y="40" width="209" height="240" as="geometry"/>
                </mxCell>
                <mxCell id="126" value="" style="shape=partialRectangle;html=1;whiteSpace=wrap;collapsible=0;dropTarget=0;pointerEvents=0;fillColor=none;top=0;left=0;bottom=1;right=0;points=[[0,0.5],[1,0.5]];portConstraint=eastwest;fontFamily=Helvetica;labelBackgroundColor=none;labelBorderColor=none;fontSize=13;" parent="125" vertex="1">
                    <mxGeometry y="30" width="209" height="30" as="geometry"/>
                </mxCell>
                <mxCell id="127" value="ID" style="shape=partialRectangle;html=1;whiteSpace=wrap;connectable=0;fillColor=none;top=0;left=0;bottom=0;right=0;overflow=hidden;fontFamily=Helvetica;labelBackgroundColor=none;labelBorderColor=none;fontSize=13;" parent="126" vertex="1">
                    <mxGeometry width="93" height="30" as="geometry"/>
                </mxCell>
                <mxCell id="128" value="int - PK" style="shape=partialRectangle;html=1;whiteSpace=wrap;connectable=0;fillColor=none;top=0;left=0;bottom=0;right=0;align=left;spacingLeft=6;overflow=hidden;fontFamily=Helvetica;labelBackgroundColor=none;labelBorderColor=none;fontSize=13;" parent="126" vertex="1">
                    <mxGeometry x="93" width="116" height="30" as="geometry"/>
                </mxCell>
                <mxCell id="129" value="" style="shape=partialRectangle;html=1;whiteSpace=wrap;collapsible=0;dropTarget=0;pointerEvents=0;fillColor=none;top=0;left=0;bottom=0;right=0;points=[[0,0.5],[1,0.5]];portConstraint=eastwest;fontFamily=Helvetica;labelBackgroundColor=none;labelBorderColor=none;resizeHeight=0;fontSize=13;" parent="125" vertex="1">
                    <mxGeometry y="60" width="209" height="30" as="geometry"/>
                </mxCell>
                <mxCell id="130" value="Username" style="shape=partialRectangle;html=1;whiteSpace=wrap;connectable=0;fillColor=none;top=0;left=0;bottom=0;right=0;overflow=hidden;fontFamily=Helvetica;labelBackgroundColor=none;labelBorderColor=none;resizeHeight=0;fontSize=13;" parent="129" vertex="1">
                    <mxGeometry width="93" height="30" as="geometry"/>
                </mxCell>
                <mxCell id="131" value="CharField(30)" style="shape=partialRectangle;html=1;whiteSpace=wrap;connectable=0;fillColor=none;top=0;left=0;bottom=0;right=0;align=left;spacingLeft=6;overflow=hidden;fontFamily=Helvetica;labelBackgroundColor=none;labelBorderColor=none;fontSize=13;" parent="129" vertex="1">
                    <mxGeometry x="93" width="116" height="30" as="geometry"/>
                </mxCell>
                <mxCell id="132" value="" style="shape=partialRectangle;html=1;whiteSpace=wrap;collapsible=0;dropTarget=0;pointerEvents=0;fillColor=none;top=0;left=0;bottom=0;right=0;points=[[0,0.5],[1,0.5]];portConstraint=eastwest;fontFamily=Helvetica;labelBackgroundColor=none;labelBorderColor=none;fontSize=13;" parent="125" vertex="1">
                    <mxGeometry y="90" width="209" height="30" as="geometry"/>
                </mxCell>
                <mxCell id="133" value="Email" style="shape=partialRectangle;html=1;whiteSpace=wrap;connectable=0;fillColor=none;top=0;left=0;bottom=0;right=0;overflow=hidden;fontFamily=Helvetica;labelBackgroundColor=none;labelBorderColor=none;fontSize=13;" parent="132" vertex="1">
                    <mxGeometry width="93" height="30" as="geometry"/>
                </mxCell>
                <mxCell id="134" value="CharField(30)" style="shape=partialRectangle;html=1;whiteSpace=wrap;connectable=0;fillColor=none;top=0;left=0;bottom=0;right=0;align=left;spacingLeft=6;overflow=hidden;fontFamily=Helvetica;labelBackgroundColor=none;labelBorderColor=none;fontSize=13;" parent="132" vertex="1">
                    <mxGeometry x="93" width="116" height="30" as="geometry"/>
                </mxCell>
                <mxCell id="138" value="" style="shape=partialRectangle;html=1;whiteSpace=wrap;collapsible=0;dropTarget=0;pointerEvents=0;fillColor=none;top=0;left=0;bottom=0;right=0;points=[[0,0.5],[1,0.5]];portConstraint=eastwest;fontFamily=Helvetica;labelBackgroundColor=none;labelBorderColor=none;fontSize=13;" parent="125" vertex="1">
                    <mxGeometry y="120" width="209" height="30" as="geometry"/>
                </mxCell>
                <mxCell id="139" value="Password" style="shape=partialRectangle;html=1;whiteSpace=wrap;connectable=0;fillColor=none;top=0;left=0;bottom=0;right=0;overflow=hidden;fontFamily=Helvetica;labelBackgroundColor=none;labelBorderColor=none;fontSize=13;" parent="138" vertex="1">
                    <mxGeometry width="93" height="30" as="geometry"/>
                </mxCell>
                <mxCell id="140" value="CharField(30)" style="shape=partialRectangle;html=1;whiteSpace=wrap;connectable=0;fillColor=none;top=0;left=0;bottom=0;right=0;align=left;spacingLeft=6;overflow=hidden;fontFamily=Helvetica;labelBackgroundColor=none;labelBorderColor=none;fontSize=13;" parent="138" vertex="1">
                    <mxGeometry x="93" width="116" height="30" as="geometry"/>
                </mxCell>
                <mxCell id="265" value="" style="shape=partialRectangle;html=1;whiteSpace=wrap;collapsible=0;dropTarget=0;pointerEvents=0;fillColor=none;top=0;left=0;bottom=0;right=0;points=[[0,0.5],[1,0.5]];portConstraint=eastwest;fontFamily=Helvetica;labelBackgroundColor=none;labelBorderColor=none;fontSize=13;" parent="125" vertex="1">
                    <mxGeometry y="150" width="209" height="30" as="geometry"/>
                </mxCell>
                <mxCell id="266" value="Description" style="shape=partialRectangle;html=1;whiteSpace=wrap;connectable=0;fillColor=none;top=0;left=0;bottom=0;right=0;overflow=hidden;fontFamily=Helvetica;labelBackgroundColor=none;labelBorderColor=none;fontSize=13;" parent="265" vertex="1">
                    <mxGeometry width="93" height="30" as="geometry"/>
                </mxCell>
                <mxCell id="267" value="TextField" style="shape=partialRectangle;html=1;whiteSpace=wrap;connectable=0;fillColor=none;top=0;left=0;bottom=0;right=0;align=left;spacingLeft=6;overflow=hidden;fontFamily=Helvetica;labelBackgroundColor=none;labelBorderColor=none;fontSize=13;" parent="265" vertex="1">
                    <mxGeometry x="93" width="116" height="30" as="geometry"/>
                </mxCell>
                <mxCell id="224" value="" style="shape=partialRectangle;html=1;whiteSpace=wrap;collapsible=0;dropTarget=0;pointerEvents=0;fillColor=none;top=0;left=0;bottom=0;right=0;points=[[0,0.5],[1,0.5]];portConstraint=eastwest;fontFamily=Helvetica;labelBackgroundColor=none;labelBorderColor=none;fontSize=13;" parent="125" vertex="1">
                    <mxGeometry y="180" width="209" height="30" as="geometry"/>
                </mxCell>
                <mxCell id="225" value="Photo" style="shape=partialRectangle;html=1;whiteSpace=wrap;connectable=0;fillColor=none;top=0;left=0;bottom=0;right=0;overflow=hidden;fontFamily=Helvetica;labelBackgroundColor=none;labelBorderColor=none;fontSize=13;" parent="224" vertex="1">
                    <mxGeometry width="93" height="30" as="geometry"/>
                </mxCell>
                <mxCell id="226" value="ImageField" style="shape=partialRectangle;html=1;whiteSpace=wrap;connectable=0;fillColor=none;top=0;left=0;bottom=0;right=0;align=left;spacingLeft=6;overflow=hidden;fontFamily=Helvetica;labelBackgroundColor=none;labelBorderColor=none;fontSize=13;" parent="224" vertex="1">
                    <mxGeometry x="93" width="116" height="30" as="geometry"/>
                </mxCell>
                <mxCell id="320" value="" style="shape=partialRectangle;html=1;whiteSpace=wrap;collapsible=0;dropTarget=0;pointerEvents=0;fillColor=none;top=0;left=0;bottom=0;right=0;points=[[0,0.5],[1,0.5]];portConstraint=eastwest;fontFamily=Helvetica;labelBackgroundColor=none;labelBorderColor=none;fontSize=13;" parent="125" vertex="1">
                    <mxGeometry y="210" width="209" height="30" as="geometry"/>
                </mxCell>
                <mxCell id="321" value="following" style="shape=partialRectangle;html=1;whiteSpace=wrap;connectable=0;fillColor=none;top=0;left=0;bottom=0;right=0;overflow=hidden;fontFamily=Helvetica;labelBackgroundColor=none;labelBorderColor=none;fontSize=13;" parent="320" vertex="1">
                    <mxGeometry width="93" height="30" as="geometry"/>
                </mxCell>
                <mxCell id="322" value="ManyToManyField" style="shape=partialRectangle;html=1;whiteSpace=wrap;connectable=0;fillColor=none;top=0;left=0;bottom=0;right=0;align=left;spacingLeft=6;overflow=hidden;fontFamily=Helvetica;labelBackgroundColor=none;labelBorderColor=none;fontSize=13;" parent="320" vertex="1">
                    <mxGeometry x="93" width="116" height="30" as="geometry"/>
                </mxCell>
                <mxCell id="149" value="" style="endArrow=none;html=1;fontFamily=Helvetica;fontSize=13;exitX=0.085;exitY=1.038;exitDx=0;exitDy=0;labelBackgroundColor=none;labelBorderColor=none;endFill=0;entryX=0.851;entryY=-0.019;entryDx=0;entryDy=0;exitPerimeter=0;entryPerimeter=0;" parent="1" source="320" target="167" edge="1">
                    <mxGeometry relative="1" as="geometry">
                        <mxPoint x="1490" y="190" as="sourcePoint"/>
                        <mxPoint x="1610" y="160" as="targetPoint"/>
                    </mxGeometry>
                </mxCell>
                <mxCell id="150" value="User&lt;br style=&quot;font-size: 13px&quot;&gt;can play Instruments" style="edgeLabel;resizable=0;html=1;align=center;verticalAlign=middle;fontFamily=Helvetica;labelBorderColor=none;fontSize=13;labelBackgroundColor=#ffffff;" parent="149" connectable="0" vertex="1">
                    <mxGeometry relative="1" as="geometry">
                        <mxPoint x="-2" as="offset"/>
                    </mxGeometry>
                </mxCell>
                <mxCell id="151" value="0..*" style="edgeLabel;resizable=0;html=1;align=left;verticalAlign=bottom;fontFamily=Helvetica;labelBackgroundColor=none;labelBorderColor=none;fontSize=13;" parent="149" connectable="0" vertex="1">
                    <mxGeometry x="-1" relative="1" as="geometry">
                        <mxPoint x="-19" y="29" as="offset"/>
                    </mxGeometry>
                </mxCell>
                <mxCell id="152" value="0..*" style="edgeLabel;resizable=0;html=1;align=right;verticalAlign=bottom;fontFamily=Helvetica;labelBackgroundColor=none;labelBorderColor=none;fontSize=13;" parent="149" connectable="0" vertex="1">
                    <mxGeometry x="1" relative="1" as="geometry">
                        <mxPoint x="-10" as="offset"/>
                    </mxGeometry>
                </mxCell>
                <mxCell id="167" value="Instrument" style="shape=table;startSize=30;container=1;collapsible=0;childLayout=tableLayout;fixedRows=1;rowLines=0;fontStyle=1;align=center;fontFamily=Helvetica;fontSize=13;labelBackgroundColor=none;labelBorderColor=none;" parent="1" vertex="1">
                    <mxGeometry x="880" y="380" width="200" height="90" as="geometry"/>
                </mxCell>
                <mxCell id="168" value="" style="shape=partialRectangle;html=1;whiteSpace=wrap;collapsible=0;dropTarget=0;pointerEvents=0;fillColor=none;top=0;left=0;bottom=1;right=0;points=[[0,0.5],[1,0.5]];portConstraint=eastwest;fontFamily=Helvetica;labelBackgroundColor=none;labelBorderColor=none;fontSize=13;" parent="167" vertex="1">
                    <mxGeometry y="30" width="200" height="30" as="geometry"/>
                </mxCell>
                <mxCell id="169" value="ID" style="shape=partialRectangle;html=1;whiteSpace=wrap;connectable=0;fillColor=none;top=0;left=0;bottom=0;right=0;overflow=hidden;fontFamily=Helvetica;labelBackgroundColor=none;labelBorderColor=none;fontSize=13;" parent="168" vertex="1">
                    <mxGeometry width="89" height="30" as="geometry"/>
                </mxCell>
                <mxCell id="170" value="int - PK" style="shape=partialRectangle;html=1;whiteSpace=wrap;connectable=0;fillColor=none;top=0;left=0;bottom=0;right=0;align=left;spacingLeft=6;overflow=hidden;fontFamily=Helvetica;labelBackgroundColor=none;labelBorderColor=none;fontSize=13;" parent="168" vertex="1">
                    <mxGeometry x="89" width="111" height="30" as="geometry"/>
                </mxCell>
                <mxCell id="171" value="" style="shape=partialRectangle;html=1;whiteSpace=wrap;collapsible=0;dropTarget=0;pointerEvents=0;fillColor=none;top=0;left=0;bottom=0;right=0;points=[[0,0.5],[1,0.5]];portConstraint=eastwest;fontFamily=Helvetica;labelBackgroundColor=none;labelBorderColor=none;fontSize=13;" parent="167" vertex="1">
                    <mxGeometry y="60" width="200" height="30" as="geometry"/>
                </mxCell>
                <mxCell id="172" value="Name" style="shape=partialRectangle;html=1;whiteSpace=wrap;connectable=0;fillColor=none;top=0;left=0;bottom=0;right=0;overflow=hidden;fontFamily=Helvetica;labelBackgroundColor=none;labelBorderColor=none;fontSize=13;" parent="171" vertex="1">
                    <mxGeometry width="89" height="30" as="geometry"/>
                </mxCell>
                <mxCell id="173" value="CharField(30)" style="shape=partialRectangle;html=1;whiteSpace=wrap;connectable=0;fillColor=none;top=0;left=0;bottom=0;right=0;align=left;spacingLeft=6;overflow=hidden;fontFamily=Helvetica;labelBackgroundColor=none;labelBorderColor=none;fontSize=13;" parent="171" vertex="1">
                    <mxGeometry x="89" width="111" height="30" as="geometry"/>
                </mxCell>
                <mxCell id="174" value="Cover" style="shape=table;startSize=30;container=1;collapsible=0;childLayout=tableLayout;fixedRows=1;rowLines=0;fontStyle=1;align=center;fontFamily=Helvetica;fontSize=13;labelBackgroundColor=none;labelBorderColor=none;" parent="1" vertex="1">
                    <mxGeometry x="1241" y="380" width="200" height="300" as="geometry"/>
                </mxCell>
                <mxCell id="175" value="" style="shape=partialRectangle;html=1;whiteSpace=wrap;collapsible=0;dropTarget=0;pointerEvents=0;fillColor=none;top=0;left=0;bottom=1;right=0;points=[[0,0.5],[1,0.5]];portConstraint=eastwest;fontFamily=Helvetica;labelBackgroundColor=none;labelBorderColor=none;fontSize=13;" parent="174" vertex="1">
                    <mxGeometry y="30" width="200" height="30" as="geometry"/>
                </mxCell>
                <mxCell id="176" value="ID" style="shape=partialRectangle;html=1;whiteSpace=wrap;connectable=0;fillColor=none;top=0;left=0;bottom=0;right=0;overflow=hidden;fontFamily=Helvetica;labelBackgroundColor=none;labelBorderColor=none;fontSize=13;" parent="175" vertex="1">
                    <mxGeometry width="89" height="30" as="geometry"/>
                </mxCell>
                <mxCell id="177" value="int - PK" style="shape=partialRectangle;html=1;whiteSpace=wrap;connectable=0;fillColor=none;top=0;left=0;bottom=0;right=0;align=left;spacingLeft=6;overflow=hidden;fontFamily=Helvetica;labelBackgroundColor=none;labelBorderColor=none;fontSize=13;" parent="175" vertex="1">
                    <mxGeometry x="89" width="111" height="30" as="geometry"/>
                </mxCell>
                <mxCell id="259" value="" style="shape=partialRectangle;html=1;whiteSpace=wrap;collapsible=0;dropTarget=0;pointerEvents=0;fillColor=none;top=0;left=0;bottom=0;right=0;points=[[0,0.5],[1,0.5]];portConstraint=eastwest;fontFamily=Helvetica;labelBackgroundColor=none;labelBorderColor=none;fontSize=13;" parent="174" vertex="1">
                    <mxGeometry y="60" width="200" height="30" as="geometry"/>
                </mxCell>
                <mxCell id="260" value="Audio" style="shape=partialRectangle;html=1;whiteSpace=wrap;connectable=0;fillColor=none;top=0;left=0;bottom=0;right=0;overflow=hidden;fontFamily=Helvetica;labelBackgroundColor=none;labelBorderColor=none;fontSize=13;" parent="259" vertex="1">
                    <mxGeometry width="89" height="30" as="geometry"/>
                </mxCell>
                <mxCell id="261" value="FileField" style="shape=partialRectangle;html=1;whiteSpace=wrap;connectable=0;fillColor=none;top=0;left=0;bottom=0;right=0;align=left;spacingLeft=6;overflow=hidden;fontFamily=Helvetica;labelBackgroundColor=none;labelBorderColor=none;fontSize=13;" parent="259" vertex="1">
                    <mxGeometry x="89" width="111" height="30" as="geometry"/>
                </mxCell>
                <mxCell id="178" value="" style="shape=partialRectangle;html=1;whiteSpace=wrap;collapsible=0;dropTarget=0;pointerEvents=0;fillColor=none;top=0;left=0;bottom=0;right=0;points=[[0,0.5],[1,0.5]];portConstraint=eastwest;fontFamily=Helvetica;labelBackgroundColor=none;labelBorderColor=none;fontSize=13;" parent="174" vertex="1">
                    <mxGeometry y="90" width="200" height="30" as="geometry"/>
                </mxCell>
                <mxCell id="179" value="Title" style="shape=partialRectangle;html=1;whiteSpace=wrap;connectable=0;fillColor=none;top=0;left=0;bottom=0;right=0;overflow=hidden;fontFamily=Helvetica;labelBackgroundColor=none;labelBorderColor=none;fontSize=13;" parent="178" vertex="1">
                    <mxGeometry width="89" height="30" as="geometry"/>
                </mxCell>
                <mxCell id="180" value="CharField(50)" style="shape=partialRectangle;html=1;whiteSpace=wrap;connectable=0;fillColor=none;top=0;left=0;bottom=0;right=0;align=left;spacingLeft=6;overflow=hidden;fontFamily=Helvetica;labelBackgroundColor=none;labelBorderColor=none;fontSize=13;" parent="178" vertex="1">
                    <mxGeometry x="89" width="111" height="30" as="geometry"/>
                </mxCell>
                <mxCell id="181" value="" style="shape=partialRectangle;html=1;whiteSpace=wrap;collapsible=0;dropTarget=0;pointerEvents=0;fillColor=none;top=0;left=0;bottom=0;right=0;points=[[0,0.5],[1,0.5]];portConstraint=eastwest;fontFamily=Helvetica;labelBackgroundColor=none;labelBorderColor=none;fontSize=13;" parent="174" vertex="1">
                    <mxGeometry y="120" width="200" height="30" as="geometry"/>
                </mxCell>
                <mxCell id="182" value="Category" style="shape=partialRectangle;html=1;whiteSpace=wrap;connectable=0;fillColor=none;top=0;left=0;bottom=0;right=0;overflow=hidden;fontFamily=Helvetica;labelBackgroundColor=none;labelBorderColor=none;fontSize=13;" parent="181" vertex="1">
                    <mxGeometry width="89" height="30" as="geometry"/>
                </mxCell>
                <mxCell id="183" value="CharField(30)" style="shape=partialRectangle;html=1;whiteSpace=wrap;connectable=0;fillColor=none;top=0;left=0;bottom=0;right=0;align=left;spacingLeft=6;overflow=hidden;fontFamily=Helvetica;labelBackgroundColor=none;labelBorderColor=none;fontSize=13;" parent="181" vertex="1">
                    <mxGeometry x="89" width="111" height="30" as="geometry"/>
                </mxCell>
                <mxCell id="184" value="" style="shape=partialRectangle;html=1;whiteSpace=wrap;collapsible=0;dropTarget=0;pointerEvents=0;fillColor=none;top=0;left=0;bottom=0;right=0;points=[[0,0.5],[1,0.5]];portConstraint=eastwest;fontFamily=Helvetica;labelBackgroundColor=none;labelBorderColor=none;fontSize=13;" parent="174" vertex="1">
                    <mxGeometry y="150" width="200" height="30" as="geometry"/>
                </mxCell>
                <mxCell id="185" value="Description" style="shape=partialRectangle;html=1;whiteSpace=wrap;connectable=0;fillColor=none;top=0;left=0;bottom=0;right=0;overflow=hidden;fontFamily=Helvetica;labelBackgroundColor=none;labelBorderColor=none;fontSize=13;" parent="184" vertex="1">
                    <mxGeometry width="89" height="30" as="geometry"/>
                </mxCell>
                <mxCell id="186" value="TextField" style="shape=partialRectangle;html=1;whiteSpace=wrap;connectable=0;fillColor=none;top=0;left=0;bottom=0;right=0;align=left;spacingLeft=6;overflow=hidden;fontFamily=Helvetica;labelBackgroundColor=none;labelBorderColor=none;fontSize=13;" parent="184" vertex="1">
                    <mxGeometry x="89" width="111" height="30" as="geometry"/>
                </mxCell>
                <mxCell id="221" value="" style="shape=partialRectangle;html=1;whiteSpace=wrap;collapsible=0;dropTarget=0;pointerEvents=0;fillColor=none;top=0;left=0;bottom=0;right=0;points=[[0,0.5],[1,0.5]];portConstraint=eastwest;fontFamily=Helvetica;labelBackgroundColor=none;labelBorderColor=none;fontSize=13;" parent="174" vertex="1">
                    <mxGeometry y="180" width="200" height="30" as="geometry"/>
                </mxCell>
                <mxCell id="222" value="Views" style="shape=partialRectangle;html=1;whiteSpace=wrap;connectable=0;fillColor=none;top=0;left=0;bottom=0;right=0;overflow=hidden;fontFamily=Helvetica;labelBackgroundColor=none;labelBorderColor=none;fontSize=13;" parent="221" vertex="1">
                    <mxGeometry width="89" height="30" as="geometry"/>
                </mxCell>
                <mxCell id="223" value="int" style="shape=partialRectangle;html=1;whiteSpace=wrap;connectable=0;fillColor=none;top=0;left=0;bottom=0;right=0;align=left;spacingLeft=6;overflow=hidden;fontFamily=Helvetica;labelBackgroundColor=none;labelBorderColor=none;fontSize=13;" parent="221" vertex="1">
                    <mxGeometry x="89" width="111" height="30" as="geometry"/>
                </mxCell>
                <mxCell id="192" value="" style="shape=partialRectangle;html=1;whiteSpace=wrap;collapsible=0;dropTarget=0;pointerEvents=0;fillColor=none;top=0;left=0;bottom=0;right=0;points=[[0,0.5],[1,0.5]];portConstraint=eastwest;fontFamily=Helvetica;labelBackgroundColor=none;labelBorderColor=none;fontSize=13;" parent="174" vertex="1">
                    <mxGeometry y="210" width="200" height="30" as="geometry"/>
                </mxCell>
                <mxCell id="193" value="UserID" style="shape=partialRectangle;html=1;whiteSpace=wrap;connectable=0;fillColor=none;top=0;left=0;bottom=0;right=0;overflow=hidden;fontFamily=Helvetica;labelBackgroundColor=none;labelBorderColor=none;fontSize=13;" parent="192" vertex="1">
                    <mxGeometry width="89" height="30" as="geometry"/>
                </mxCell>
                <mxCell id="194" value="int - FK" style="shape=partialRectangle;html=1;whiteSpace=wrap;connectable=0;fillColor=none;top=0;left=0;bottom=0;right=0;align=left;spacingLeft=6;overflow=hidden;fontFamily=Helvetica;labelBackgroundColor=none;labelBorderColor=none;fontSize=13;" parent="192" vertex="1">
                    <mxGeometry x="89" width="111" height="30" as="geometry"/>
                </mxCell>
                <mxCell id="195" value="" style="shape=partialRectangle;html=1;whiteSpace=wrap;collapsible=0;dropTarget=0;pointerEvents=0;fillColor=none;top=0;left=0;bottom=0;right=0;points=[[0,0.5],[1,0.5]];portConstraint=eastwest;fontFamily=Helvetica;labelBackgroundColor=none;labelBorderColor=none;fontSize=13;" parent="174" vertex="1">
                    <mxGeometry y="240" width="200" height="30" as="geometry"/>
                </mxCell>
                <mxCell id="196" value="InstrumentID" style="shape=partialRectangle;html=1;whiteSpace=wrap;connectable=0;fillColor=none;top=0;left=0;bottom=0;right=0;overflow=hidden;fontFamily=Helvetica;labelBackgroundColor=none;labelBorderColor=none;fontSize=13;" parent="195" vertex="1">
                    <mxGeometry width="89" height="30" as="geometry"/>
                </mxCell>
                <mxCell id="197" value="int - FK" style="shape=partialRectangle;html=1;whiteSpace=wrap;connectable=0;fillColor=none;top=0;left=0;bottom=0;right=0;align=left;spacingLeft=6;overflow=hidden;fontFamily=Helvetica;labelBackgroundColor=none;labelBorderColor=none;fontSize=13;" parent="195" vertex="1">
                    <mxGeometry x="89" width="111" height="30" as="geometry"/>
                </mxCell>
                <mxCell id="217" value="" style="shape=partialRectangle;html=1;whiteSpace=wrap;collapsible=0;dropTarget=0;pointerEvents=0;fillColor=none;top=0;left=0;bottom=0;right=0;points=[[0,0.5],[1,0.5]];portConstraint=eastwest;fontFamily=Helvetica;labelBackgroundColor=none;labelBorderColor=none;fontSize=13;" parent="174" vertex="1">
                    <mxGeometry y="270" width="200" height="30" as="geometry"/>
                </mxCell>
                <mxCell id="218" value="SongID" style="shape=partialRectangle;html=1;whiteSpace=wrap;connectable=0;fillColor=none;top=0;left=0;bottom=0;right=0;overflow=hidden;fontFamily=Helvetica;labelBackgroundColor=none;labelBorderColor=none;fontSize=13;" parent="217" vertex="1">
                    <mxGeometry width="89" height="30" as="geometry"/>
                </mxCell>
                <mxCell id="219" value="int - FK" style="shape=partialRectangle;html=1;whiteSpace=wrap;connectable=0;fillColor=none;top=0;left=0;bottom=0;right=0;align=left;spacingLeft=6;overflow=hidden;fontFamily=Helvetica;labelBackgroundColor=none;labelBorderColor=none;fontSize=13;" parent="217" vertex="1">
                    <mxGeometry x="89" width="111" height="30" as="geometry"/>
                </mxCell>
                <mxCell id="188" value="" style="endArrow=none;html=1;fontFamily=Helvetica;fontSize=13;entryX=0.5;entryY=0;entryDx=0;entryDy=0;labelBackgroundColor=none;labelBorderColor=none;endFill=0;" parent="1" target="174" edge="1">
                    <mxGeometry relative="1" as="geometry">
                        <mxPoint x="1341" y="281" as="sourcePoint"/>
                        <mxPoint x="1564.5" y="319.58000000000004" as="targetPoint"/>
                    </mxGeometry>
                </mxCell>
                <mxCell id="189" value="User&lt;br style=&quot;font-size: 13px;&quot;&gt;Makes Covers" style="edgeLabel;resizable=0;html=1;align=center;verticalAlign=middle;fontFamily=Helvetica;labelBorderColor=none;fontSize=13;labelBackgroundColor=#ffffff;" parent="188" connectable="0" vertex="1">
                    <mxGeometry relative="1" as="geometry">
                        <mxPoint x="-2" as="offset"/>
                    </mxGeometry>
                </mxCell>
                <mxCell id="190" value="0..*" style="edgeLabel;resizable=0;html=1;align=left;verticalAlign=bottom;fontFamily=Helvetica;labelBackgroundColor=none;labelBorderColor=none;fontSize=13;" parent="188" connectable="0" vertex="1">
                    <mxGeometry x="-1" relative="1" as="geometry">
                        <mxPoint x="-31" y="20" as="offset"/>
                    </mxGeometry>
                </mxCell>
                <mxCell id="191" value="1..1" style="edgeLabel;resizable=0;html=1;align=right;verticalAlign=bottom;fontFamily=Helvetica;labelBackgroundColor=none;labelBorderColor=none;fontSize=13;" parent="188" connectable="0" vertex="1">
                    <mxGeometry x="1" relative="1" as="geometry">
                        <mxPoint x="-10" as="offset"/>
                    </mxGeometry>
                </mxCell>
                <mxCell id="198" value="" style="endArrow=none;html=1;fontFamily=Helvetica;fontSize=13;labelBackgroundColor=none;labelBorderColor=none;endFill=0;exitX=0;exitY=0.5;exitDx=0;exitDy=0;entryX=1;entryY=0.5;entryDx=0;entryDy=0;" parent="1" source="259" target="171" edge="1">
                    <mxGeometry relative="1" as="geometry">
                        <mxPoint x="1559.9999999999998" y="230" as="sourcePoint"/>
                        <mxPoint x="1670" y="200" as="targetPoint"/>
                    </mxGeometry>
                </mxCell>
                <mxCell id="199" value="Cover&lt;br style=&quot;font-size: 13px&quot;&gt;done by Instrument" style="edgeLabel;resizable=0;html=1;align=center;verticalAlign=middle;fontFamily=Helvetica;labelBorderColor=none;fontSize=13;labelBackgroundColor=#ffffff;" parent="198" connectable="0" vertex="1">
                    <mxGeometry relative="1" as="geometry">
                        <mxPoint x="-1" y="-1" as="offset"/>
                    </mxGeometry>
                </mxCell>
                <mxCell id="200" value="1..1" style="edgeLabel;resizable=0;html=1;align=left;verticalAlign=bottom;fontFamily=Helvetica;labelBackgroundColor=none;labelBorderColor=none;fontSize=13;" parent="198" connectable="0" vertex="1">
                    <mxGeometry x="-1" relative="1" as="geometry">
                        <mxPoint x="-31" y="-5" as="offset"/>
                    </mxGeometry>
                </mxCell>
                <mxCell id="201" value="0..*" style="edgeLabel;resizable=0;html=1;align=right;verticalAlign=bottom;fontFamily=Helvetica;labelBackgroundColor=none;labelBorderColor=none;fontSize=13;" parent="198" connectable="0" vertex="1">
                    <mxGeometry x="1" relative="1" as="geometry">
                        <mxPoint x="30" y="-5" as="offset"/>
                    </mxGeometry>
                </mxCell>
                <mxCell id="202" value="Combination" style="shape=table;startSize=30;container=1;collapsible=0;childLayout=tableLayout;fixedRows=1;rowLines=0;fontStyle=1;align=center;fontFamily=Helvetica;fontSize=13;labelBackgroundColor=none;labelBorderColor=none;" parent="1" vertex="1">
                    <mxGeometry x="1640" y="360" width="200" height="120" as="geometry"/>
                </mxCell>
                <mxCell id="203" value="" style="shape=partialRectangle;html=1;whiteSpace=wrap;collapsible=0;dropTarget=0;pointerEvents=0;fillColor=none;top=0;left=0;bottom=1;right=0;points=[[0,0.5],[1,0.5]];portConstraint=eastwest;fontFamily=Helvetica;labelBackgroundColor=none;labelBorderColor=none;fontSize=13;" parent="202" vertex="1">
                    <mxGeometry y="30" width="200" height="30" as="geometry"/>
                </mxCell>
                <mxCell id="204" value="ID" style="shape=partialRectangle;html=1;whiteSpace=wrap;connectable=0;fillColor=none;top=0;left=0;bottom=0;right=0;overflow=hidden;fontFamily=Helvetica;labelBackgroundColor=none;labelBorderColor=none;fontSize=13;" parent="203" vertex="1">
                    <mxGeometry width="89" height="30" as="geometry"/>
                </mxCell>
                <mxCell id="205" value="int - PK" style="shape=partialRectangle;html=1;whiteSpace=wrap;connectable=0;fillColor=none;top=0;left=0;bottom=0;right=0;align=left;spacingLeft=6;overflow=hidden;fontFamily=Helvetica;labelBackgroundColor=none;labelBorderColor=none;fontSize=13;" parent="203" vertex="1">
                    <mxGeometry x="89" width="111" height="30" as="geometry"/>
                </mxCell>
                <mxCell id="206" value="" style="shape=partialRectangle;html=1;whiteSpace=wrap;collapsible=0;dropTarget=0;pointerEvents=0;fillColor=none;top=0;left=0;bottom=0;right=0;points=[[0,0.5],[1,0.5]];portConstraint=eastwest;fontFamily=Helvetica;labelBackgroundColor=none;labelBorderColor=none;fontSize=13;" parent="202" vertex="1">
                    <mxGeometry y="60" width="200" height="30" as="geometry"/>
                </mxCell>
                <mxCell id="207" value="Views" style="shape=partialRectangle;html=1;whiteSpace=wrap;connectable=0;fillColor=none;top=0;left=0;bottom=0;right=0;overflow=hidden;fontFamily=Helvetica;labelBackgroundColor=none;labelBorderColor=none;fontSize=13;" parent="206" vertex="1">
                    <mxGeometry width="89" height="30" as="geometry"/>
                </mxCell>
                <mxCell id="208" value="int" style="shape=partialRectangle;html=1;whiteSpace=wrap;connectable=0;fillColor=none;top=0;left=0;bottom=0;right=0;align=left;spacingLeft=6;overflow=hidden;fontFamily=Helvetica;labelBackgroundColor=none;labelBorderColor=none;fontSize=13;" parent="206" vertex="1">
                    <mxGeometry x="89" width="111" height="30" as="geometry"/>
                </mxCell>
                <mxCell id="406" value="" style="shape=partialRectangle;html=1;whiteSpace=wrap;collapsible=0;dropTarget=0;pointerEvents=0;fillColor=none;top=0;left=0;bottom=0;right=0;points=[[0,0.5],[1,0.5]];portConstraint=eastwest;fontFamily=Helvetica;labelBackgroundColor=none;labelBorderColor=none;fontSize=13;" parent="202" vertex="1">
                    <mxGeometry y="90" width="200" height="30" as="geometry"/>
                </mxCell>
                <mxCell id="407" value="SongID" style="shape=partialRectangle;html=1;whiteSpace=wrap;connectable=0;fillColor=none;top=0;left=0;bottom=0;right=0;overflow=hidden;fontFamily=Helvetica;labelBackgroundColor=none;labelBorderColor=none;fontSize=13;" parent="406" vertex="1">
                    <mxGeometry width="89" height="30" as="geometry"/>
                </mxCell>
                <mxCell id="408" value="int - FK" style="shape=partialRectangle;html=1;whiteSpace=wrap;connectable=0;fillColor=none;top=0;left=0;bottom=0;right=0;align=left;spacingLeft=6;overflow=hidden;fontFamily=Helvetica;labelBackgroundColor=none;labelBorderColor=none;fontSize=13;" parent="406" vertex="1">
                    <mxGeometry x="89" width="111" height="30" as="geometry"/>
                </mxCell>
                <mxCell id="227" value="" style="endArrow=none;html=1;fontFamily=Helvetica;fontSize=13;entryX=1;entryY=0.5;entryDx=0;entryDy=0;labelBackgroundColor=none;labelBorderColor=none;endFill=0;exitX=0;exitY=0.5;exitDx=0;exitDy=0;" parent="1" source="206" target="175" edge="1">
                    <mxGeometry relative="1" as="geometry">
                        <mxPoint x="1530" y="360" as="sourcePoint"/>
                        <mxPoint x="1530" y="490" as="targetPoint"/>
                        <Array as="points"/>
                    </mxGeometry>
                </mxCell>
                <mxCell id="228" value="Combination&lt;br style=&quot;font-size: 13px&quot;&gt;contains Covers" style="edgeLabel;resizable=0;html=1;align=center;verticalAlign=middle;fontFamily=Helvetica;labelBorderColor=none;fontSize=13;labelBackgroundColor=#ffffff;" parent="227" connectable="0" vertex="1">
                    <mxGeometry relative="1" as="geometry">
                        <mxPoint x="-2" as="offset"/>
                    </mxGeometry>
                </mxCell>
                <mxCell id="229" value="1..*" style="edgeLabel;resizable=0;html=1;align=left;verticalAlign=bottom;fontFamily=Helvetica;labelBackgroundColor=none;labelBorderColor=none;fontSize=13;" parent="227" connectable="0" vertex="1">
                    <mxGeometry x="-1" relative="1" as="geometry">
                        <mxPoint x="-30" y="-5" as="offset"/>
                    </mxGeometry>
                </mxCell>
                <mxCell id="230" value="0..*" style="edgeLabel;resizable=0;html=1;align=right;verticalAlign=bottom;fontFamily=Helvetica;labelBackgroundColor=none;labelBorderColor=none;fontSize=13;" parent="227" connectable="0" vertex="1">
                    <mxGeometry x="1" relative="1" as="geometry">
                        <mxPoint x="29" y="-5" as="offset"/>
                    </mxGeometry>
                </mxCell>
                <mxCell id="231" value="" style="endArrow=none;html=1;fontFamily=Helvetica;fontSize=13;labelBackgroundColor=none;labelBorderColor=none;endFill=0;exitX=0;exitY=0.5;exitDx=0;exitDy=0;entryX=1.013;entryY=0.157;entryDx=0;entryDy=0;entryPerimeter=0;" parent="1" source="192" target="235" edge="1">
                    <mxGeometry relative="1" as="geometry">
                        <mxPoint x="1341" y="670" as="sourcePoint"/>
                        <mxPoint x="1080" y="570" as="targetPoint"/>
                    </mxGeometry>
                </mxCell>
                <mxCell id="232" value="Cover&lt;br style=&quot;font-size: 13px&quot;&gt;can have&lt;br style=&quot;font-size: 13px&quot;&gt;CoverTags" style="edgeLabel;resizable=0;html=1;align=center;verticalAlign=middle;fontFamily=Helvetica;labelBorderColor=none;fontSize=13;labelBackgroundColor=#ffffff;" parent="231" connectable="0" vertex="1">
                    <mxGeometry relative="1" as="geometry">
                        <mxPoint x="-1" as="offset"/>
                    </mxGeometry>
                </mxCell>
                <mxCell id="233" value="0..*" style="edgeLabel;resizable=0;html=1;align=left;verticalAlign=bottom;fontFamily=Helvetica;labelBackgroundColor=none;labelBorderColor=none;fontSize=13;" parent="231" connectable="0" vertex="1">
                    <mxGeometry x="-1" relative="1" as="geometry">
                        <mxPoint x="-23" y="-5" as="offset"/>
                    </mxGeometry>
                </mxCell>
                <mxCell id="234" value="1..*" style="edgeLabel;resizable=0;html=1;align=right;verticalAlign=bottom;fontFamily=Helvetica;labelBackgroundColor=none;labelBorderColor=none;fontSize=13;" parent="231" connectable="0" vertex="1">
                    <mxGeometry x="1" relative="1" as="geometry">
                        <mxPoint x="18" y="-5" as="offset"/>
                    </mxGeometry>
                </mxCell>
                <mxCell id="235" value="CoverTag" style="shape=table;startSize=30;container=1;collapsible=0;childLayout=tableLayout;fixedRows=1;rowLines=0;fontStyle=1;align=center;fontFamily=Helvetica;fontSize=13;labelBackgroundColor=none;labelBorderColor=none;" parent="1" vertex="1">
                    <mxGeometry x="960" y="590" width="170" height="90" as="geometry"/>
                </mxCell>
                <mxCell id="236" value="" style="shape=partialRectangle;html=1;whiteSpace=wrap;collapsible=0;dropTarget=0;pointerEvents=0;fillColor=none;top=0;left=0;bottom=1;right=0;points=[[0,0.5],[1,0.5]];portConstraint=eastwest;fontFamily=Helvetica;labelBackgroundColor=none;labelBorderColor=none;fontSize=13;" parent="235" vertex="1">
                    <mxGeometry y="30" width="170" height="30" as="geometry"/>
                </mxCell>
                <mxCell id="237" value="ID" style="shape=partialRectangle;html=1;whiteSpace=wrap;connectable=0;fillColor=none;top=0;left=0;bottom=0;right=0;overflow=hidden;fontFamily=Helvetica;labelBackgroundColor=none;labelBorderColor=none;fontSize=13;" parent="236" vertex="1">
                    <mxGeometry width="76" height="30" as="geometry"/>
                </mxCell>
                <mxCell id="238" value="int - PK" style="shape=partialRectangle;html=1;whiteSpace=wrap;connectable=0;fillColor=none;top=0;left=0;bottom=0;right=0;align=left;spacingLeft=6;overflow=hidden;fontFamily=Helvetica;labelBackgroundColor=none;labelBorderColor=none;fontSize=13;" parent="236" vertex="1">
                    <mxGeometry x="76" width="94" height="30" as="geometry"/>
                </mxCell>
                <mxCell id="239" value="" style="shape=partialRectangle;html=1;whiteSpace=wrap;collapsible=0;dropTarget=0;pointerEvents=0;fillColor=none;top=0;left=0;bottom=0;right=0;points=[[0,0.5],[1,0.5]];portConstraint=eastwest;fontFamily=Helvetica;labelBackgroundColor=none;labelBorderColor=none;fontSize=13;" parent="235" vertex="1">
                    <mxGeometry y="60" width="170" height="30" as="geometry"/>
                </mxCell>
                <mxCell id="240" value="Name" style="shape=partialRectangle;html=1;whiteSpace=wrap;connectable=0;fillColor=none;top=0;left=0;bottom=0;right=0;overflow=hidden;fontFamily=Helvetica;labelBackgroundColor=none;labelBorderColor=none;fontSize=13;" parent="239" vertex="1">
                    <mxGeometry width="76" height="30" as="geometry"/>
                </mxCell>
                <mxCell id="241" value="CharField(30)" style="shape=partialRectangle;html=1;whiteSpace=wrap;connectable=0;fillColor=none;top=0;left=0;bottom=0;right=0;align=left;spacingLeft=6;overflow=hidden;fontFamily=Helvetica;labelBackgroundColor=none;labelBorderColor=none;fontSize=13;" parent="239" vertex="1">
                    <mxGeometry x="76" width="94" height="30" as="geometry"/>
                </mxCell>
                <mxCell id="245" value="Song" style="shape=table;startSize=30;container=1;collapsible=0;childLayout=tableLayout;fixedRows=1;rowLines=0;fontStyle=1;align=center;fontFamily=Helvetica;fontSize=13;labelBackgroundColor=none;labelBorderColor=none;" parent="1" vertex="1">
                    <mxGeometry x="1640" y="580" width="200" height="210" as="geometry"/>
                </mxCell>
                <mxCell id="246" value="" style="shape=partialRectangle;html=1;whiteSpace=wrap;collapsible=0;dropTarget=0;pointerEvents=0;fillColor=none;top=0;left=0;bottom=1;right=0;points=[[0,0.5],[1,0.5]];portConstraint=eastwest;fontFamily=Helvetica;labelBackgroundColor=none;labelBorderColor=none;fontSize=13;" parent="245" vertex="1">
                    <mxGeometry y="30" width="200" height="30" as="geometry"/>
                </mxCell>
                <mxCell id="247" value="ID" style="shape=partialRectangle;html=1;whiteSpace=wrap;connectable=0;fillColor=none;top=0;left=0;bottom=0;right=0;overflow=hidden;fontFamily=Helvetica;labelBackgroundColor=none;labelBorderColor=none;fontSize=13;" parent="246" vertex="1">
                    <mxGeometry width="89" height="30" as="geometry"/>
                </mxCell>
                <mxCell id="248" value="int - PK" style="shape=partialRectangle;html=1;whiteSpace=wrap;connectable=0;fillColor=none;top=0;left=0;bottom=0;right=0;align=left;spacingLeft=6;overflow=hidden;fontFamily=Helvetica;labelBackgroundColor=none;labelBorderColor=none;fontSize=13;" parent="246" vertex="1">
                    <mxGeometry x="89" width="111" height="30" as="geometry"/>
                </mxCell>
                <mxCell id="249" value="" style="shape=partialRectangle;html=1;whiteSpace=wrap;collapsible=0;dropTarget=0;pointerEvents=0;fillColor=none;top=0;left=0;bottom=0;right=0;points=[[0,0.5],[1,0.5]];portConstraint=eastwest;fontFamily=Helvetica;labelBackgroundColor=none;labelBorderColor=none;fontSize=13;" parent="245" vertex="1">
                    <mxGeometry y="60" width="200" height="30" as="geometry"/>
                </mxCell>
                <mxCell id="250" value="Title" style="shape=partialRectangle;html=1;whiteSpace=wrap;connectable=0;fillColor=none;top=0;left=0;bottom=0;right=0;overflow=hidden;fontFamily=Helvetica;labelBackgroundColor=none;labelBorderColor=none;fontSize=13;" parent="249" vertex="1">
                    <mxGeometry width="89" height="30" as="geometry"/>
                </mxCell>
                <mxCell id="251" value="CharField(50)" style="shape=partialRectangle;html=1;whiteSpace=wrap;connectable=0;fillColor=none;top=0;left=0;bottom=0;right=0;align=left;spacingLeft=6;overflow=hidden;fontFamily=Helvetica;labelBackgroundColor=none;labelBorderColor=none;fontSize=13;" parent="249" vertex="1">
                    <mxGeometry x="89" width="111" height="30" as="geometry"/>
                </mxCell>
                <mxCell id="252" value="" style="shape=partialRectangle;html=1;whiteSpace=wrap;collapsible=0;dropTarget=0;pointerEvents=0;fillColor=none;top=0;left=0;bottom=0;right=0;points=[[0,0.5],[1,0.5]];portConstraint=eastwest;fontFamily=Helvetica;labelBackgroundColor=none;labelBorderColor=none;fontSize=13;" parent="245" vertex="1">
                    <mxGeometry y="90" width="200" height="30" as="geometry"/>
                </mxCell>
                <mxCell id="253" value="Singer" style="shape=partialRectangle;html=1;whiteSpace=wrap;connectable=0;fillColor=none;top=0;left=0;bottom=0;right=0;overflow=hidden;fontFamily=Helvetica;labelBackgroundColor=none;labelBorderColor=none;fontSize=13;" parent="252" vertex="1">
                    <mxGeometry width="89" height="30" as="geometry"/>
                </mxCell>
                <mxCell id="254" value="CharField(50)" style="shape=partialRectangle;html=1;whiteSpace=wrap;connectable=0;fillColor=none;top=0;left=0;bottom=0;right=0;align=left;spacingLeft=6;overflow=hidden;fontFamily=Helvetica;labelBackgroundColor=none;labelBorderColor=none;fontSize=13;" parent="252" vertex="1">
                    <mxGeometry x="89" width="111" height="30" as="geometry"/>
                </mxCell>
                <mxCell id="262" value="" style="shape=partialRectangle;html=1;whiteSpace=wrap;collapsible=0;dropTarget=0;pointerEvents=0;fillColor=none;top=0;left=0;bottom=0;right=0;points=[[0,0.5],[1,0.5]];portConstraint=eastwest;fontFamily=Helvetica;labelBackgroundColor=none;labelBorderColor=none;fontSize=13;" parent="245" vertex="1">
                    <mxGeometry y="120" width="200" height="30" as="geometry"/>
                </mxCell>
                <mxCell id="263" value="Category" style="shape=partialRectangle;html=1;whiteSpace=wrap;connectable=0;fillColor=none;top=0;left=0;bottom=0;right=0;overflow=hidden;fontFamily=Helvetica;labelBackgroundColor=none;labelBorderColor=none;fontSize=13;" parent="262" vertex="1">
                    <mxGeometry width="89" height="30" as="geometry"/>
                </mxCell>
                <mxCell id="264" value="CharField(30)" style="shape=partialRectangle;html=1;whiteSpace=wrap;connectable=0;fillColor=none;top=0;left=0;bottom=0;right=0;align=left;spacingLeft=6;overflow=hidden;fontFamily=Helvetica;labelBackgroundColor=none;labelBorderColor=none;fontSize=13;" parent="262" vertex="1">
                    <mxGeometry x="89" width="111" height="30" as="geometry"/>
                </mxCell>
                <mxCell id="268" value="" style="shape=partialRectangle;html=1;whiteSpace=wrap;collapsible=0;dropTarget=0;pointerEvents=0;fillColor=none;top=0;left=0;bottom=0;right=0;points=[[0,0.5],[1,0.5]];portConstraint=eastwest;fontFamily=Helvetica;labelBackgroundColor=none;labelBorderColor=none;fontSize=13;" parent="245" vertex="1">
                    <mxGeometry y="150" width="200" height="30" as="geometry"/>
                </mxCell>
                <mxCell id="269" value="Reference" style="shape=partialRectangle;html=1;whiteSpace=wrap;connectable=0;fillColor=none;top=0;left=0;bottom=0;right=0;overflow=hidden;fontFamily=Helvetica;labelBackgroundColor=none;labelBorderColor=none;fontSize=13;" parent="268" vertex="1">
                    <mxGeometry width="89" height="30" as="geometry"/>
                </mxCell>
                <mxCell id="270" value="CharField(255)" style="shape=partialRectangle;html=1;whiteSpace=wrap;connectable=0;fillColor=none;top=0;left=0;bottom=0;right=0;align=left;spacingLeft=6;overflow=hidden;fontFamily=Helvetica;labelBackgroundColor=none;labelBorderColor=none;fontSize=13;" parent="268" vertex="1">
                    <mxGeometry x="89" width="111" height="30" as="geometry"/>
                </mxCell>
                <mxCell id="271" value="" style="shape=partialRectangle;html=1;whiteSpace=wrap;collapsible=0;dropTarget=0;pointerEvents=0;fillColor=none;top=0;left=0;bottom=0;right=0;points=[[0,0.5],[1,0.5]];portConstraint=eastwest;fontFamily=Helvetica;labelBackgroundColor=none;labelBorderColor=none;fontSize=13;" parent="245" vertex="1">
                    <mxGeometry y="180" width="200" height="30" as="geometry"/>
                </mxCell>
                <mxCell id="272" value="Description" style="shape=partialRectangle;html=1;whiteSpace=wrap;connectable=0;fillColor=none;top=0;left=0;bottom=0;right=0;overflow=hidden;fontFamily=Helvetica;labelBackgroundColor=none;labelBorderColor=none;fontSize=13;" parent="271" vertex="1">
                    <mxGeometry width="89" height="30" as="geometry"/>
                </mxCell>
                <mxCell id="273" value="TextField" style="shape=partialRectangle;html=1;whiteSpace=wrap;connectable=0;fillColor=none;top=0;left=0;bottom=0;right=0;align=left;spacingLeft=6;overflow=hidden;fontFamily=Helvetica;labelBackgroundColor=none;labelBorderColor=none;fontSize=13;" parent="271" vertex="1">
                    <mxGeometry x="89" width="111" height="30" as="geometry"/>
                </mxCell>
                <mxCell id="255" value="" style="endArrow=none;html=1;fontFamily=Helvetica;fontSize=13;labelBackgroundColor=none;labelBorderColor=none;endFill=0;entryX=0.5;entryY=0;entryDx=0;entryDy=0;" parent="1" target="245" edge="1">
                    <mxGeometry relative="1" as="geometry">
                        <mxPoint x="1740" y="480" as="sourcePoint"/>
                        <mxPoint x="1750" y="560" as="targetPoint"/>
                    </mxGeometry>
                </mxCell>
                <mxCell id="256" value="Song&lt;br style=&quot;font-size: 13px&quot;&gt;can have Combinations" style="edgeLabel;resizable=0;html=1;align=center;verticalAlign=middle;fontFamily=Helvetica;labelBorderColor=none;fontSize=13;labelBackgroundColor=none;" parent="255" connectable="0" vertex="1">
                    <mxGeometry relative="1" as="geometry">
                        <mxPoint x="-2" as="offset"/>
                    </mxGeometry>
                </mxCell>
                <mxCell id="257" value="1..1" style="edgeLabel;resizable=0;html=1;align=left;verticalAlign=bottom;fontFamily=Helvetica;labelBackgroundColor=none;labelBorderColor=none;fontSize=13;" parent="255" connectable="0" vertex="1">
                    <mxGeometry x="-1" relative="1" as="geometry">
                        <mxPoint x="-31" y="20" as="offset"/>
                    </mxGeometry>
                </mxCell>
                <mxCell id="258" value="0..*" style="edgeLabel;resizable=0;html=1;align=right;verticalAlign=bottom;fontFamily=Helvetica;labelBackgroundColor=none;labelBorderColor=none;fontSize=13;" parent="255" connectable="0" vertex="1">
                    <mxGeometry x="1" relative="1" as="geometry">
                        <mxPoint x="-10" as="offset"/>
                    </mxGeometry>
                </mxCell>
                <mxCell id="274" value="" style="endArrow=none;html=1;fontFamily=Helvetica;fontSize=13;labelBackgroundColor=none;labelBorderColor=none;endFill=0;exitX=0;exitY=0;exitDx=0;exitDy=0;entryX=1.001;entryY=-0.072;entryDx=0;entryDy=0;entryPerimeter=0;" parent="1" source="245" target="184" edge="1">
                    <mxGeometry relative="1" as="geometry">
                        <mxPoint x="1640" y="530" as="sourcePoint"/>
                        <mxPoint x="1450" y="530" as="targetPoint"/>
                    </mxGeometry>
                </mxCell>
                <mxCell id="275" value="Song&lt;br style=&quot;font-size: 13px&quot;&gt;can have Covers" style="edgeLabel;resizable=0;html=1;align=center;verticalAlign=middle;fontFamily=Helvetica;labelBorderColor=none;fontSize=13;labelBackgroundColor=#ffffff;" parent="274" connectable="0" vertex="1">
                    <mxGeometry relative="1" as="geometry">
                        <mxPoint x="-2" as="offset"/>
                    </mxGeometry>
                </mxCell>
                <mxCell id="276" value="0..*" style="edgeLabel;resizable=0;html=1;align=left;verticalAlign=bottom;fontFamily=Helvetica;labelBackgroundColor=none;labelBorderColor=none;fontSize=13;" parent="274" connectable="0" vertex="1">
                    <mxGeometry x="-1" relative="1" as="geometry">
                        <mxPoint x="-30" y="-5" as="offset"/>
                    </mxGeometry>
                </mxCell>
                <mxCell id="277" value="1..1" style="edgeLabel;resizable=0;html=1;align=right;verticalAlign=bottom;fontFamily=Helvetica;labelBackgroundColor=none;labelBorderColor=none;fontSize=13;" parent="274" connectable="0" vertex="1">
                    <mxGeometry x="1" relative="1" as="geometry">
                        <mxPoint x="29" y="-5" as="offset"/>
                    </mxGeometry>
                </mxCell>
                <mxCell id="316" value="" style="endArrow=none;html=1;labelBackgroundColor=none;fontFamily=Helvetica;fontSize=13;startSize=30;rounded=0;" parent="1" edge="1">
                    <mxGeometry width="50" height="50" relative="1" as="geometry">
                        <mxPoint x="1241" y="60" as="sourcePoint"/>
                        <mxPoint x="1241" y="260" as="targetPoint"/>
                        <Array as="points">
                            <mxPoint x="1190" y="60"/>
                            <mxPoint x="1191" y="260"/>
                        </Array>
                    </mxGeometry>
                </mxCell>
                <mxCell id="317" value="0..*" style="edgeLabel;resizable=0;html=1;align=left;verticalAlign=bottom;fontFamily=Helvetica;labelBackgroundColor=none;labelBorderColor=none;fontSize=13;rotation=0;" parent="1" connectable="0" vertex="1">
                    <mxGeometry x="1202.4999999999995" y="280" as="geometry"/>
                </mxCell>
                <mxCell id="421" value="" style="endArrow=none;html=1;fontFamily=Helvetica;fontSize=13;exitX=1;exitY=0.5;exitDx=0;exitDy=0;labelBackgroundColor=none;labelBorderColor=none;endFill=0;entryX=0.007;entryY=0.16;entryDx=0;entryDy=0;entryPerimeter=0;" parent="1" target="202" edge="1">
                    <mxGeometry relative="1" as="geometry">
                        <mxPoint x="1450" y="280" as="sourcePoint"/>
                        <mxPoint x="1640" y="310" as="targetPoint"/>
                    </mxGeometry>
                </mxCell>
                <mxCell id="422" value="User&lt;br style=&quot;font-size: 13px&quot;&gt;can like Combinations" style="edgeLabel;resizable=0;html=1;align=center;verticalAlign=middle;fontFamily=Helvetica;labelBorderColor=none;fontSize=13;labelBackgroundColor=#ffffff;" parent="421" connectable="0" vertex="1">
                    <mxGeometry relative="1" as="geometry">
                        <mxPoint x="34" y="3" as="offset"/>
                    </mxGeometry>
                </mxCell>
                <mxCell id="423" value="0..*" style="edgeLabel;resizable=0;html=1;align=left;verticalAlign=bottom;fontFamily=Helvetica;labelBackgroundColor=none;labelBorderColor=none;fontSize=13;" parent="421" connectable="0" vertex="1">
                    <mxGeometry x="-1" relative="1" as="geometry">
                        <mxPoint x="9" as="offset"/>
                    </mxGeometry>
                </mxCell>
                <mxCell id="424" value="0..*" style="edgeLabel;resizable=0;html=1;align=right;verticalAlign=bottom;fontFamily=Helvetica;labelBackgroundColor=none;labelBorderColor=none;fontSize=13;" parent="421" connectable="0" vertex="1">
                    <mxGeometry x="1" relative="1" as="geometry">
                        <mxPoint x="-10" as="offset"/>
                    </mxGeometry>
                </mxCell>
                <mxCell id="425" value="User&lt;br style=&quot;font-size: 13px&quot;&gt;can have Followings" style="edgeLabel;resizable=0;html=1;align=center;verticalAlign=middle;fontFamily=Helvetica;labelBorderColor=none;fontSize=13;labelBackgroundColor=#ffffff;" parent="1" connectable="0" vertex="1">
                    <mxGeometry x="1170.0028117751153" y="160.00198924099203" as="geometry"/>
                </mxCell>
            </root>
        </mxGraphModel>
    </diagram>
</mxfile>